<svg width="506" height="1016" viewBox="0 0 506 1016" fill="none" xmlns="http://www.w3.org/2000/svg">
<g clip-path="url(#clip0_58_920)">
<rect width="506" height="1016" fill="#71B2BC"/>
<path d="M22.7235 204.296L214.472 376.771L-21.1952 458.434L22.7235 204.296Z" fill="#328E8A"/>
<path d="M128.5 116L239.784 410H17.2157L128.5 116Z" fill="#328E8A"/>
<path d="M321.254 317.232L368.333 476.001L181.159 405.534L321.254 317.232Z" fill="#1E7874"/>
<path d="M431 183L555.708 408.75H306.292L431 183Z" fill="#1E7874"/>
<rect y="390" width="506" height="765" fill="#1E7874"/>
<path d="M157 61C157 61 168.5 63.5 169.5 66.5C170.5 69.5 181.5 61 181.5 61" stroke="black" stroke-width="3"/>
<path d="M152 77C152 77 162.667 88.9475 162.667 85.3113C162.667 81.6751 172 77 172 77" stroke="black" stroke-width="3"/>
<path d="M94 318L95.6111 341.022C95.6765 341.956 94.9364 342.75 94 342.75C93.0636 342.75 92.3235 341.956 92.3889 341.022L94 318Z" fill="#D9D9D9"/>
<path d="M129 279L130.611 302.022C130.677 302.956 129.936 303.75 129 303.75C128.064 303.75 127.323 302.956 127.389 302.022L129 279Z" fill="#D9D9D9"/>
<path d="M94 318L95.6111 341.022C95.6765 341.956 94.9364 342.75 94 342.75C93.0636 342.75 92.3235 341.956 92.3889 341.022L94 318Z" fill="#D9D9D9"/>
<path d="M108 285L109.611 308.022C109.677 308.956 108.936 309.75 108 309.75C107.064 309.75 106.323 308.956 106.389 308.022L108 285Z" fill="#D9D9D9"/>
<path d="M132 313L133.611 336.022C133.677 336.956 132.936 337.75 132 337.75C131.064 337.75 130.323 336.956 130.389 336.022L132 313Z" fill="#D9D9D9"/>
<path d="M145 296L146.611 319.022C146.677 319.956 145.936 320.75 145 320.75C144.064 320.75 143.323 319.956 143.389 319.022L145 296Z" fill="#D9D9D9"/>
<path d="M118 309L119.611 332.022C119.677 332.956 118.936 333.75 118 333.75C117.064 333.75 116.323 332.956 116.389 332.022L118 309Z" fill="#D9D9D9"/>
<path d="M106 325L107.611 348.022C107.677 348.956 106.936 349.75 106 349.75C105.064 349.75 104.323 348.956 104.389 348.022L106 325Z" fill="#D9D9D9"/>
<path d="M43 16L44.6111 39.0222C44.6765 39.9563 43.9364 40.75 43 40.75C42.0636 40.75 41.3235 39.9563 41.3889 39.0222L43 16Z" fill="#D9D9D9"/>
<path d="M8 55L9.61113 78.0222C9.6765 78.9563 8.93637 79.75 8 79.75C7.06363 79.75 6.3235 78.9563 6.38887 78.0222L8 55Z" fill="#D9D9D9"/>
<path d="M22 22L23.6111 45.0222C23.6765 45.9563 22.9364 46.75 22 46.75C21.0636 46.75 20.3235 45.9563 20.3889 45.0222L22 22Z" fill="#D9D9D9"/>
<path d="M46 50L47.6111 73.0222C47.6765 73.9563 46.9364 74.75 46 74.75C45.0636 74.75 44.3235 73.9563 44.3889 73.0222L46 50Z" fill="#D9D9D9"/>
<path d="M59 33L60.6111 56.0222C60.6765 56.9563 59.9364 57.75 59 57.75C58.0636 57.75 57.3235 56.9563 57.3889 56.0222L59 33Z" fill="#D9D9D9"/>
<path d="M32 46L33.6111 69.0222C33.6765 69.9563 32.9364 70.75 32 70.75C31.0636 70.75 30.3235 69.9563 30.3889 69.0222L32 46Z" fill="#D9D9D9"/>
<path d="M20 62L21.6111 85.0222C21.6765 85.9563 20.9364 86.75 20 86.75C19.0636 86.75 18.3235 85.9563 18.3889 85.0222L20 62Z" fill="#D9D9D9"/>
<path d="M117 37L118.611 60.0222C118.677 60.9563 117.936 61.75 117 61.75C116.064 61.75 115.323 60.9563 115.389 60.0222L117 37Z" fill="#D9D9D9"/>
<path d="M82 76L83.6111 99.0222C83.6765 99.9563 82.9364 100.75 82 100.75C81.0636 100.75 80.3235 99.9563 80.3889 99.0222L82 76Z" fill="#D9D9D9"/>
<path d="M96 43L97.6111 66.0222C97.6765 66.9563 96.9364 67.75 96 67.75C95.0636 67.75 94.3235 66.9563 94.3889 66.0222L96 43Z" fill="#D9D9D9"/>
<path d="M120 71L121.611 94.0222C121.677 94.9563 120.936 95.75 120 95.75C119.064 95.75 118.323 94.9563 118.389 94.0222L120 71Z" fill="#D9D9D9"/>
<path d="M133 54L134.611 77.0222C134.677 77.9563 133.936 78.75 133 78.75C132.064 78.75 131.323 77.9563 131.389 77.0222L133 54Z" fill="#D9D9D9"/>
<path d="M106 67L107.611 90.0222C107.677 90.9563 106.936 91.75 106 91.75C105.064 91.75 104.323 90.9563 104.389 90.0222L106 67Z" fill="#D9D9D9"/>
<path d="M94 83L95.6111 106.022C95.6765 106.956 94.9364 107.75 94 107.75C93.0636 107.75 92.3235 106.956 92.3889 106.022L94 83Z" fill="#D9D9D9"/>
<path d="M65 79L66.6111 102.022C66.6765 102.956 65.9364 103.75 65 103.75C64.0636 103.75 63.3235 102.956 63.3889 102.022L65 79Z" fill="#D9D9D9"/>
<path d="M30 118L31.6111 141.022C31.6765 141.956 30.9364 142.75 30 142.75C29.0636 142.75 28.3235 141.956 28.3889 141.022L30 118Z" fill="#D9D9D9"/>
<path d="M44 85L45.6111 108.022C45.6765 108.956 44.9364 109.75 44 109.75C43.0636 109.75 42.3235 108.956 42.3889 108.022L44 85Z" fill="#D9D9D9"/>
<path d="M68 113L69.6111 136.022C69.6765 136.956 68.9364 137.75 68 137.75C67.0636 137.75 66.3235 136.956 66.3889 136.022L68 113Z" fill="#D9D9D9"/>
<path d="M81 96L82.6111 119.022C82.6765 119.956 81.9364 120.75 81 120.75C80.0636 120.75 79.3235 119.956 79.3889 119.022L81 96Z" fill="#D9D9D9"/>
<path d="M54 109L55.6111 132.022C55.6765 132.956 54.9364 133.75 54 133.75C53.0636 133.75 52.3235 132.956 52.3889 132.022L54 109Z" fill="#D9D9D9"/>
<path d="M42 125L43.6111 148.022C43.6765 148.956 42.9364 149.75 42 149.75C41.0636 149.75 40.3235 148.956 40.3889 148.022L42 125Z" fill="#D9D9D9"/>
<path d="M473 354L474.611 377.022C474.677 377.956 473.936 378.75 473 378.75C472.064 378.75 471.323 377.956 471.389 377.022L473 354Z" fill="#D9D9D9"/>
<path d="M438 393L439.611 416.022C439.677 416.956 438.936 417.75 438 417.75C437.064 417.75 436.323 416.956 436.389 416.022L438 393Z" fill="#D9D9D9"/>
<path d="M452 360L453.611 383.022C453.677 383.956 452.936 384.75 452 384.75C451.064 384.75 450.323 383.956 450.389 383.022L452 360Z" fill="#D9D9D9"/>
<path d="M476 388L477.611 411.022C477.677 411.956 476.936 412.75 476 412.75C475.064 412.75 474.323 411.956 474.389 411.022L476 388Z" fill="#D9D9D9"/>
<path d="M489 371L490.611 394.022C490.677 394.956 489.936 395.75 489 395.75C488.064 395.75 487.323 394.956 487.389 394.022L489 371Z" fill="#D9D9D9"/>
<path d="M462 384L463.611 407.022C463.677 407.956 462.936 408.75 462 408.75C461.064 408.75 460.323 407.956 460.389 407.022L462 384Z" fill="#D9D9D9"/>
<path d="M450 400L451.611 423.022C451.677 423.956 450.936 424.75 450 424.75C449.064 424.75 448.323 423.956 448.389 423.022L450 400Z" fill="#D9D9D9"/>
<path d="M403 352L404.611 375.022C404.677 375.956 403.936 376.75 403 376.75C402.064 376.75 401.323 375.956 401.389 375.022L403 352Z" fill="#D9D9D9"/>
<path d="M368 391L369.611 414.022C369.677 414.956 368.936 415.75 368 415.75C367.064 415.75 366.323 414.956 366.389 414.022L368 391Z" fill="#D9D9D9"/>
<path d="M382 358L383.611 381.022C383.677 381.956 382.936 382.75 382 382.75C381.064 382.75 380.323 381.956 380.389 381.022L382 358Z" fill="#D9D9D9"/>
<path d="M406 386L407.611 409.022C407.677 409.956 406.936 410.75 406 410.75C405.064 410.75 404.323 409.956 404.389 409.022L406 386Z" fill="#D9D9D9"/>
<path d="M419 369L420.611 392.022C420.677 392.956 419.936 393.75 419 393.75C418.064 393.75 417.323 392.956 417.389 392.022L419 369Z" fill="#D9D9D9"/>
<path d="M392 382L393.611 405.022C393.677 405.956 392.936 406.75 392 406.75C391.064 406.75 390.323 405.956 390.389 405.022L392 382Z" fill="#D9D9D9"/>
<path d="M380 398L381.611 421.022C381.677 421.956 380.936 422.75 380 422.75C379.064 422.75 378.323 421.956 378.389 421.022L380 398Z" fill="#D9D9D9"/>
<path d="M340 362L341.611 385.022C341.677 385.956 340.936 386.75 340 386.75C339.064 386.75 338.323 385.956 338.389 385.022L340 362Z" fill="#D9D9D9"/>
<path d="M305 401L306.611 424.022C306.677 424.956 305.936 425.75 305 425.75C304.064 425.75 303.323 424.956 303.389 424.022L305 401Z" fill="#D9D9D9"/>
<path d="M319 368L320.611 391.022C320.677 391.956 319.936 392.75 319 392.75C318.064 392.75 317.323 391.956 317.389 391.022L319 368Z" fill="#D9D9D9"/>
<path d="M343 396L344.611 419.022C344.677 419.956 343.936 420.75 343 420.75C342.064 420.75 341.323 419.956 341.389 419.022L343 396Z" fill="#D9D9D9"/>
<path d="M356 379L357.611 402.022C357.677 402.956 356.936 403.75 356 403.75C355.064 403.75 354.323 402.956 354.389 402.022L356 379Z" fill="#D9D9D9"/>
<path d="M329 392L330.611 415.022C330.677 415.956 329.936 416.75 329 416.75C328.064 416.75 327.323 415.956 327.389 415.022L329 392Z" fill="#D9D9D9"/>
<path d="M317 408L318.611 431.022C318.677 431.956 317.936 432.75 317 432.75C316.064 432.75 315.323 431.956 315.389 431.022L317 408Z" fill="#D9D9D9"/>
<path d="M215 369L216.611 392.022C216.677 392.956 215.936 393.75 215 393.75C214.064 393.75 213.323 392.956 213.389 392.022L215 369Z" fill="#D9D9D9"/>
<path d="M180 408L181.611 431.022C181.677 431.956 180.936 432.75 180 432.75C179.064 432.75 178.323 431.956 178.389 431.022L180 408Z" fill="#D9D9D9"/>
<path d="M194 375L195.611 398.022C195.677 398.956 194.936 399.75 194 399.75C193.064 399.75 192.323 398.956 192.389 398.022L194 375Z" fill="#D9D9D9"/>
<path d="M218 403L219.611 426.022C219.677 426.956 218.936 427.75 218 427.75C217.064 427.75 216.323 426.956 216.389 426.022L218 403Z" fill="#D9D9D9"/>
<path d="M231 386L232.611 409.022C232.677 409.956 231.936 410.75 231 410.75C230.064 410.75 229.323 409.956 229.389 409.022L231 386Z" fill="#D9D9D9"/>
<path d="M204 399L205.611 422.022C205.677 422.956 204.936 423.75 204 423.75C203.064 423.75 202.323 422.956 202.389 422.022L204 399Z" fill="#D9D9D9"/>
<path d="M192 415L193.611 438.022C193.677 438.956 192.936 439.75 192 439.75C191.064 439.75 190.323 438.956 190.389 438.022L192 415Z" fill="#D9D9D9"/>
<path d="M265 367L266.611 390.022C266.677 390.956 265.936 391.75 265 391.75C264.064 391.75 263.323 390.956 263.389 390.022L265 367Z" fill="#D9D9D9"/>
<path d="M230 406L231.611 429.022C231.677 429.956 230.936 430.75 230 430.75C229.064 430.75 228.323 429.956 228.389 429.022L230 406Z" fill="#D9D9D9"/>
<path d="M244 373L245.611 396.022C245.677 396.956 244.936 397.75 244 397.75C243.064 397.75 242.323 396.956 242.389 396.022L244 373Z" fill="#D9D9D9"/>
<path d="M268 401L269.611 424.022C269.677 424.956 268.936 425.75 268 425.75C267.064 425.75 266.323 424.956 266.389 424.022L268 401Z" fill="#D9D9D9"/>
<path d="M281 384L282.611 407.022C282.677 407.956 281.936 408.75 281 408.75C280.064 408.75 279.323 407.956 279.389 407.022L281 384Z" fill="#D9D9D9"/>
<path d="M254 397L255.611 420.022C255.677 420.956 254.936 421.75 254 421.75C253.064 421.75 252.323 420.956 252.389 420.022L254 397Z" fill="#D9D9D9"/>
<path d="M242 413L243.611 436.022C243.677 436.956 242.936 437.75 242 437.75C241.064 437.75 240.323 436.956 240.389 436.022L242 413Z" fill="#D9D9D9"/>
<path d="M160 370L161.611 393.022C161.677 393.956 160.936 394.75 160 394.75C159.064 394.75 158.323 393.956 158.389 393.022L160 370Z" fill="#D9D9D9"/>
<path d="M125 409L126.611 432.022C126.677 432.956 125.936 433.75 125 433.75C124.064 433.75 123.323 432.956 123.389 432.022L125 409Z" fill="#D9D9D9"/>
<path d="M139 376L140.611 399.022C140.677 399.956 139.936 400.75 139 400.75C138.064 400.75 137.323 399.956 137.389 399.022L139 376Z" fill="#D9D9D9"/>
<path d="M163 404L164.611 427.022C164.677 427.956 163.936 428.75 163 428.75C162.064 428.75 161.323 427.956 161.389 427.022L163 404Z" fill="#D9D9D9"/>
<path d="M176 387L177.611 410.022C177.677 410.956 176.936 411.75 176 411.75C175.064 411.75 174.323 410.956 174.389 410.022L176 387Z" fill="#D9D9D9"/>
<path d="M149 400L150.611 423.022C150.677 423.956 149.936 424.75 149 424.75C148.064 424.75 147.323 423.956 147.389 423.022L149 400Z" fill="#D9D9D9"/>
<path d="M137 416L138.611 439.022C138.677 439.956 137.936 440.75 137 440.75C136.064 440.75 135.323 439.956 135.389 439.022L137 416Z" fill="#D9D9D9"/>
<path d="M459 304L460.611 327.022C460.677 327.956 459.936 328.75 459 328.75C458.064 328.75 457.323 327.956 457.389 327.022L459 304Z" fill="#D9D9D9"/>
<path d="M424 343L425.611 366.022C425.677 366.956 424.936 367.75 424 367.75C423.064 367.75 422.323 366.956 422.389 366.022L424 343Z" fill="#D9D9D9"/>
<path d="M438 310L439.611 333.022C439.677 333.956 438.936 334.75 438 334.75C437.064 334.75 436.323 333.956 436.389 333.022L438 310Z" fill="#D9D9D9"/>
<path d="M462 338L463.611 361.022C463.677 361.956 462.936 362.75 462 362.75C461.064 362.75 460.323 361.956 460.389 361.022L462 338Z" fill="#D9D9D9"/>
<path d="M475 321L476.611 344.022C476.677 344.956 475.936 345.75 475 345.75C474.064 345.75 473.323 344.956 473.389 344.022L475 321Z" fill="#D9D9D9"/>
<path d="M448 334L449.611 357.022C449.677 357.956 448.936 358.75 448 358.75C447.064 358.75 446.323 357.956 446.389 357.022L448 334Z" fill="#D9D9D9"/>
<path d="M436 350L437.611 373.022C437.677 373.956 436.936 374.75 436 374.75C435.064 374.75 434.323 373.956 434.389 373.022L436 350Z" fill="#D9D9D9"/>
<path d="M390 298L391.611 321.022C391.677 321.956 390.936 322.75 390 322.75C389.064 322.75 388.323 321.956 388.389 321.022L390 298Z" fill="#D9D9D9"/>
<path d="M355 337L356.611 360.022C356.677 360.956 355.936 361.75 355 361.75C354.064 361.75 353.323 360.956 353.389 360.022L355 337Z" fill="#D9D9D9"/>
<path d="M369 304L370.611 327.022C370.677 327.956 369.936 328.75 369 328.75C368.064 328.75 367.323 327.956 367.389 327.022L369 304Z" fill="#D9D9D9"/>
<path d="M393 332L394.611 355.022C394.677 355.956 393.936 356.75 393 356.75C392.064 356.75 391.323 355.956 391.389 355.022L393 332Z" fill="#D9D9D9"/>
<path d="M406 315L407.611 338.022C407.677 338.956 406.936 339.75 406 339.75C405.064 339.75 404.323 338.956 404.389 338.022L406 315Z" fill="#D9D9D9"/>
<path d="M379 328L380.611 351.022C380.677 351.956 379.936 352.75 379 352.75C378.064 352.75 377.323 351.956 377.389 351.022L379 328Z" fill="#D9D9D9"/>
<path d="M367 344L368.611 367.022C368.677 367.956 367.936 368.75 367 368.75C366.064 368.75 365.323 367.956 365.389 367.022L367 344Z" fill="#D9D9D9"/>
<path d="M327 310L328.611 333.022C328.677 333.956 327.936 334.75 327 334.75C326.064 334.75 325.323 333.956 325.389 333.022L327 310Z" fill="#D9D9D9"/>
<path d="M292 349L293.611 372.022C293.677 372.956 292.936 373.75 292 373.75C291.064 373.75 290.323 372.956 290.389 372.022L292 349Z" fill="#D9D9D9"/>
<path d="M306 316L307.611 339.022C307.677 339.956 306.936 340.75 306 340.75C305.064 340.75 304.323 339.956 304.389 339.022L306 316Z" fill="#D9D9D9"/>
<path d="M330 344L331.611 367.022C331.677 367.956 330.936 368.75 330 368.75C329.064 368.75 328.323 367.956 328.389 367.022L330 344Z" fill="#D9D9D9"/>
<path d="M343 327L344.611 350.022C344.677 350.956 343.936 351.75 343 351.75C342.064 351.75 341.323 350.956 341.389 350.022L343 327Z" fill="#D9D9D9"/>
<path d="M316 340L317.611 363.022C317.677 363.956 316.936 364.75 316 364.75C315.064 364.75 314.323 363.956 314.389 363.022L316 340Z" fill="#D9D9D9"/>
<path d="M304 356L305.611 379.022C305.677 379.956 304.936 380.75 304 380.75C303.064 380.75 302.323 379.956 302.389 379.022L304 356Z" fill="#D9D9D9"/>
<path d="M244 316L245.611 339.022C245.677 339.956 244.936 340.75 244 340.75C243.064 340.75 242.323 339.956 242.389 339.022L244 316Z" fill="#D9D9D9"/>
<path d="M209 355L210.611 378.022C210.677 378.956 209.936 379.75 209 379.75C208.064 379.75 207.323 378.956 207.389 378.022L209 355Z" fill="#D9D9D9"/>
<path d="M223 322L224.611 345.022C224.677 345.956 223.936 346.75 223 346.75C222.064 346.75 221.323 345.956 221.389 345.022L223 322Z" fill="#D9D9D9"/>
<path d="M247 350L248.611 373.022C248.677 373.956 247.936 374.75 247 374.75C246.064 374.75 245.323 373.956 245.389 373.022L247 350Z" fill="#D9D9D9"/>
<path d="M260 333L261.611 356.022C261.677 356.956 260.936 357.75 260 357.75C259.064 357.75 258.323 356.956 258.389 356.022L260 333Z" fill="#D9D9D9"/>
<path d="M233 346L234.611 369.022C234.677 369.956 233.936 370.75 233 370.75C232.064 370.75 231.323 369.956 231.389 369.022L233 346Z" fill="#D9D9D9"/>
<path d="M221 362L222.611 385.022C222.677 385.956 221.936 386.75 221 386.75C220.064 386.75 219.323 385.956 219.389 385.022L221 362Z" fill="#D9D9D9"/>
<path d="M351 228L352.611 251.022C352.677 251.956 351.936 252.75 351 252.75C350.064 252.75 349.323 251.956 349.389 251.022L351 228Z" fill="#D9D9D9"/>
<path d="M316 267L317.611 290.022C317.677 290.956 316.936 291.75 316 291.75C315.064 291.75 314.323 290.956 314.389 290.022L316 267Z" fill="#D9D9D9"/>
<path d="M330 234L331.611 257.022C331.677 257.956 330.936 258.75 330 258.75C329.064 258.75 328.323 257.956 328.389 257.022L330 234Z" fill="#D9D9D9"/>
<path d="M354 262L355.611 285.022C355.677 285.956 354.936 286.75 354 286.75C353.064 286.75 352.323 285.956 352.389 285.022L354 262Z" fill="#D9D9D9"/>
<path d="M367 245L368.611 268.022C368.677 268.956 367.936 269.75 367 269.75C366.064 269.75 365.323 268.956 365.389 268.022L367 245Z" fill="#D9D9D9"/>
<path d="M340 258L341.611 281.022C341.677 281.956 340.936 282.75 340 282.75C339.064 282.75 338.323 281.956 338.389 281.022L340 258Z" fill="#D9D9D9"/>
<path d="M328 274L329.611 297.022C329.677 297.956 328.936 298.75 328 298.75C327.064 298.75 326.323 297.956 326.389 297.022L328 274Z" fill="#D9D9D9"/>
<path d="M270 184L271.611 207.022C271.677 207.956 270.936 208.75 270 208.75C269.064 208.75 268.323 207.956 268.389 207.022L270 184Z" fill="#D9D9D9"/>
<path d="M235 223L236.611 246.022C236.677 246.956 235.936 247.75 235 247.75C234.064 247.75 233.323 246.956 233.389 246.022L235 223Z" fill="#D9D9D9"/>
<path d="M249 190L250.611 213.022C250.677 213.956 249.936 214.75 249 214.75C248.064 214.75 247.323 213.956 247.389 213.022L249 190Z" fill="#D9D9D9"/>
<path d="M273 218L274.611 241.022C274.677 241.956 273.936 242.75 273 242.75C272.064 242.75 271.323 241.956 271.389 241.022L273 218Z" fill="#D9D9D9"/>
<path d="M286 201L287.611 224.022C287.677 224.956 286.936 225.75 286 225.75C285.064 225.75 284.323 224.956 284.389 224.022L286 201Z" fill="#D9D9D9"/>
<path d="M259 214L260.611 237.022C260.677 237.956 259.936 238.75 259 238.75C258.064 238.75 257.323 237.956 257.389 237.022L259 214Z" fill="#D9D9D9"/>
<path d="M247 230L248.611 253.022C248.677 253.956 247.936 254.75 247 254.75C246.064 254.75 245.323 253.956 245.389 253.022L247 230Z" fill="#D9D9D9"/>
<path d="M332 170L333.611 193.022C333.677 193.956 332.936 194.75 332 194.75C331.064 194.75 330.323 193.956 330.389 193.022L332 170Z" fill="#D9D9D9"/>
<path d="M297 209L298.611 232.022C298.677 232.956 297.936 233.75 297 233.75C296.064 233.75 295.323 232.956 295.389 232.022L297 209Z" fill="#D9D9D9"/>
<path d="M311 176L312.611 199.022C312.677 199.956 311.936 200.75 311 200.75C310.064 200.75 309.323 199.956 309.389 199.022L311 176Z" fill="#D9D9D9"/>
<path d="M335 204L336.611 227.022C336.677 227.956 335.936 228.75 335 228.75C334.064 228.75 333.323 227.956 333.389 227.022L335 204Z" fill="#D9D9D9"/>
<path d="M348 187L349.611 210.022C349.677 210.956 348.936 211.75 348 211.75C347.064 211.75 346.323 210.956 346.389 210.022L348 187Z" fill="#D9D9D9"/>
<path d="M321 200L322.611 223.022C322.677 223.956 321.936 224.75 321 224.75C320.064 224.75 319.323 223.956 319.389 223.022L321 200Z" fill="#D9D9D9"/>
<path d="M309 216L310.611 239.022C310.677 239.956 309.936 240.75 309 240.75C308.064 240.75 307.323 239.956 307.389 239.022L309 216Z" fill="#D9D9D9"/>
<path d="M437 191L438.611 214.022C438.677 214.956 437.936 215.75 437 215.75C436.064 215.75 435.323 214.956 435.389 214.022L437 191Z" fill="#D9D9D9"/>
<path d="M402 230L403.611 253.022C403.677 253.956 402.936 254.75 402 254.75C401.064 254.75 400.323 253.956 400.389 253.022L402 230Z" fill="#D9D9D9"/>
<path d="M416 197L417.611 220.022C417.677 220.956 416.936 221.75 416 221.75C415.064 221.75 414.323 220.956 414.389 220.022L416 197Z" fill="#D9D9D9"/>
<path d="M440 225L441.611 248.022C441.677 248.956 440.936 249.75 440 249.75C439.064 249.75 438.323 248.956 438.389 248.022L440 225Z" fill="#D9D9D9"/>
<path d="M453 208L454.611 231.022C454.677 231.956 453.936 232.75 453 232.75C452.064 232.75 451.323 231.956 451.389 231.022L453 208Z" fill="#D9D9D9"/>
<path d="M426 221L427.611 244.022C427.677 244.956 426.936 245.75 426 245.75C425.064 245.75 424.323 244.956 424.389 244.022L426 221Z" fill="#D9D9D9"/>
<path d="M414 237L415.611 260.022C415.677 260.956 414.936 261.75 414 261.75C413.064 261.75 412.323 260.956 412.389 260.022L414 237Z" fill="#D9D9D9"/>
<path d="M479 220L480.611 243.022C480.677 243.956 479.936 244.75 479 244.75C478.064 244.75 477.323 243.956 477.389 243.022L479 220Z" fill="#D9D9D9"/>
<path d="M444 259L445.611 282.022C445.677 282.956 444.936 283.75 444 283.75C443.064 283.75 442.323 282.956 442.389 282.022L444 259Z" fill="#D9D9D9"/>
<path d="M458 226L459.611 249.022C459.677 249.956 458.936 250.75 458 250.75C457.064 250.75 456.323 249.956 456.389 249.022L458 226Z" fill="#D9D9D9"/>
<path d="M482 254L483.611 277.022C483.677 277.956 482.936 278.75 482 278.75C481.064 278.75 480.323 277.956 480.389 277.022L482 254Z" fill="#D9D9D9"/>
<path d="M495 237L496.611 260.022C496.677 260.956 495.936 261.75 495 261.75C494.064 261.75 493.323 260.956 493.389 260.022L495 237Z" fill="#D9D9D9"/>
<path d="M468 250L469.611 273.022C469.677 273.956 468.936 274.75 468 274.75C467.064 274.75 466.323 273.956 466.389 273.022L468 250Z" fill="#D9D9D9"/>
<path d="M456 266L457.611 289.022C457.677 289.956 456.936 290.75 456 290.75C455.064 290.75 454.323 289.956 454.389 289.022L456 266Z" fill="#D9D9D9"/>
<path d="M407 230L408.611 253.022C408.677 253.956 407.936 254.75 407 254.75C406.064 254.75 405.323 253.956 405.389 253.022L407 230Z" fill="#D9D9D9"/>
<path d="M372 269L373.611 292.022C373.677 292.956 372.936 293.75 372 293.75C371.064 293.75 370.323 292.956 370.389 292.022L372 269Z" fill="#D9D9D9"/>
<path d="M386 236L387.611 259.022C387.677 259.956 386.936 260.75 386 260.75C385.064 260.75 384.323 259.956 384.389 259.022L386 236Z" fill="#D9D9D9"/>
<path d="M410 264L411.611 287.022C411.677 287.956 410.936 288.75 410 288.75C409.064 288.75 408.323 287.956 408.389 287.022L410 264Z" fill="#D9D9D9"/>
<path d="M423 247L424.611 270.022C424.677 270.956 423.936 271.75 423 271.75C422.064 271.75 421.323 270.956 421.389 270.022L423 247Z" fill="#D9D9D9"/>
<path d="M396 260L397.611 283.022C397.677 283.956 396.936 284.75 396 284.75C395.064 284.75 394.323 283.956 394.389 283.022L396 260Z" fill="#D9D9D9"/>
<path d="M384 276L385.611 299.022C385.677 299.956 384.936 300.75 384 300.75C383.064 300.75 382.323 299.956 382.389 299.022L384 276Z" fill="#D9D9D9"/>
<path d="M480 142L481.611 165.022C481.677 165.956 480.936 166.75 480 166.75C479.064 166.75 478.323 165.956 478.389 165.022L480 142Z" fill="#D9D9D9"/>
<path d="M445 181L446.611 204.022C446.677 204.956 445.936 205.75 445 205.75C444.064 205.75 443.323 204.956 443.389 204.022L445 181Z" fill="#D9D9D9"/>
<path d="M459 148L460.611 171.022C460.677 171.956 459.936 172.75 459 172.75C458.064 172.75 457.323 171.956 457.389 171.022L459 148Z" fill="#D9D9D9"/>
<path d="M483 176L484.611 199.022C484.677 199.956 483.936 200.75 483 200.75C482.064 200.75 481.323 199.956 481.389 199.022L483 176Z" fill="#D9D9D9"/>
<path d="M496 159L497.611 182.022C497.677 182.956 496.936 183.75 496 183.75C495.064 183.75 494.323 182.956 494.389 182.022L496 159Z" fill="#D9D9D9"/>
<path d="M469 172L470.611 195.022C470.677 195.956 469.936 196.75 469 196.75C468.064 196.75 467.323 195.956 467.389 195.022L469 172Z" fill="#D9D9D9"/>
<path d="M457 188L458.611 211.022C458.677 211.956 457.936 212.75 457 212.75C456.064 212.75 455.323 211.956 455.389 211.022L457 188Z" fill="#D9D9D9"/>
<path d="M413 149L414.611 172.022C414.677 172.956 413.936 173.75 413 173.75C412.064 173.75 411.323 172.956 411.389 172.022L413 149Z" fill="#D9D9D9"/>
<path d="M378 188L379.611 211.022C379.677 211.956 378.936 212.75 378 212.75C377.064 212.75 376.323 211.956 376.389 211.022L378 188Z" fill="#D9D9D9"/>
<path d="M392 155L393.611 178.022C393.677 178.956 392.936 179.75 392 179.75C391.064 179.75 390.323 178.956 390.389 178.022L392 155Z" fill="#D9D9D9"/>
<path d="M416 183L417.611 206.022C417.677 206.956 416.936 207.75 416 207.75C415.064 207.75 414.323 206.956 414.389 206.022L416 183Z" fill="#D9D9D9"/>
<path d="M429 166L430.611 189.022C430.677 189.956 429.936 190.75 429 190.75C428.064 190.75 427.323 189.956 427.389 189.022L429 166Z" fill="#D9D9D9"/>
<path d="M402 179L403.611 202.022C403.677 202.956 402.936 203.75 402 203.75C401.064 203.75 400.323 202.956 400.389 202.022L402 179Z" fill="#D9D9D9"/>
<path d="M390 195L391.611 218.022C391.677 218.956 390.936 219.75 390 219.75C389.064 219.75 388.323 218.956 388.389 218.022L390 195Z" fill="#D9D9D9"/>
<path d="M82 353L83.6111 376.022C83.6765 376.956 82.9364 377.75 82 377.75C81.0636 377.75 80.3235 376.956 80.3889 376.022L82 353Z" fill="#D9D9D9"/>
<path d="M47 392L48.6111 415.022C48.6765 415.956 47.9364 416.75 47 416.75C46.0636 416.75 45.3235 415.956 45.3889 415.022L47 392Z" fill="#D9D9D9"/>
<path d="M61 359L62.6111 382.022C62.6765 382.956 61.9364 383.75 61 383.75C60.0636 383.75 59.3235 382.956 59.3889 382.022L61 359Z" fill="#D9D9D9"/>
<path d="M85 387L86.6111 410.022C86.6765 410.956 85.9364 411.75 85 411.75C84.0636 411.75 83.3235 410.956 83.3889 410.022L85 387Z" fill="#D9D9D9"/>
<path d="M98 370L99.6111 393.022C99.6765 393.956 98.9364 394.75 98 394.75C97.0636 394.75 96.3235 393.956 96.3889 393.022L98 370Z" fill="#D9D9D9"/>
<path d="M71 383L72.6111 406.022C72.6765 406.956 71.9364 407.75 71 407.75C70.0636 407.75 69.3235 406.956 69.3889 406.022L71 383Z" fill="#D9D9D9"/>
<path d="M59 399L60.6111 422.022C60.6765 422.956 59.9364 423.75 59 423.75C58.0636 423.75 57.3235 422.956 57.3889 422.022L59 399Z" fill="#D9D9D9"/>
<path d="M66 286L67.6111 309.022C67.6765 309.956 66.9364 310.75 66 310.75C65.0636 310.75 64.3235 309.956 64.3889 309.022L66 286Z" fill="#D9D9D9"/>
<path d="M31 325L32.6111 348.022C32.6765 348.956 31.9364 349.75 31 349.75C30.0636 349.75 29.3235 348.956 29.3889 348.022L31 325Z" fill="#D9D9D9"/>
<path d="M45 292L46.6111 315.022C46.6765 315.956 45.9364 316.75 45 316.75C44.0636 316.75 43.3235 315.956 43.3889 315.022L45 292Z" fill="#D9D9D9"/>
<path d="M69 320L70.6111 343.022C70.6765 343.956 69.9364 344.75 69 344.75C68.0636 344.75 67.3235 343.956 67.3889 343.022L69 320Z" fill="#D9D9D9"/>
<path d="M82 303L83.6111 326.022C83.6765 326.956 82.9364 327.75 82 327.75C81.0636 327.75 80.3235 326.956 80.3889 326.022L82 303Z" fill="#D9D9D9"/>
<path d="M55 316L56.6111 339.022C56.6765 339.956 55.9364 340.75 55 340.75C54.0636 340.75 53.3235 339.956 53.3889 339.022L55 316Z" fill="#D9D9D9"/>
<path d="M43 332L44.6111 355.022C44.6765 355.956 43.9364 356.75 43 356.75C42.0636 356.75 41.3235 355.956 41.3889 355.022L43 332Z" fill="#D9D9D9"/>
<path d="M86 206L87.6111 229.022C87.6765 229.956 86.9364 230.75 86 230.75C85.0636 230.75 84.3235 229.956 84.3889 229.022L86 206Z" fill="#D9D9D9"/>
<path d="M51 245L52.6111 268.022C52.6765 268.956 51.9364 269.75 51 269.75C50.0636 269.75 49.3235 268.956 49.3889 268.022L51 245Z" fill="#D9D9D9"/>
<path d="M65 212L66.6111 235.022C66.6765 235.956 65.9364 236.75 65 236.75C64.0636 236.75 63.3235 235.956 63.3889 235.022L65 212Z" fill="#D9D9D9"/>
<path d="M89 240L90.6111 263.022C90.6765 263.956 89.9364 264.75 89 264.75C88.0636 264.75 87.3235 263.956 87.3889 263.022L89 240Z" fill="#D9D9D9"/>
<path d="M102 223L103.611 246.022C103.677 246.956 102.936 247.75 102 247.75C101.064 247.75 100.323 246.956 100.389 246.022L102 223Z" fill="#D9D9D9"/>
<path d="M75 236L76.6111 259.022C76.6765 259.956 75.9364 260.75 75 260.75C74.0636 260.75 73.3235 259.956 73.3889 259.022L75 236Z" fill="#D9D9D9"/>
<path d="M63 252L64.6111 275.022C64.6765 275.956 63.9364 276.75 63 276.75C62.0636 276.75 61.3235 275.956 61.3889 275.022L63 252Z" fill="#D9D9D9"/>
<path d="M194 221L195.611 244.022C195.677 244.956 194.936 245.75 194 245.75C193.064 245.75 192.323 244.956 192.389 244.022L194 221Z" fill="#D9D9D9"/>
<path d="M159 260L160.611 283.022C160.677 283.956 159.936 284.75 159 284.75C158.064 284.75 157.323 283.956 157.389 283.022L159 260Z" fill="#D9D9D9"/>
<path d="M173 227L174.611 250.022C174.677 250.956 173.936 251.75 173 251.75C172.064 251.75 171.323 250.956 171.389 250.022L173 227Z" fill="#D9D9D9"/>
<path d="M197 255L198.611 278.022C198.677 278.956 197.936 279.75 197 279.75C196.064 279.75 195.323 278.956 195.389 278.022L197 255Z" fill="#D9D9D9"/>
<path d="M210 238L211.611 261.022C211.677 261.956 210.936 262.75 210 262.75C209.064 262.75 208.323 261.956 208.389 261.022L210 238Z" fill="#D9D9D9"/>
<path d="M183 251L184.611 274.022C184.677 274.956 183.936 275.75 183 275.75C182.064 275.75 181.323 274.956 181.389 274.022L183 251Z" fill="#D9D9D9"/>
<path d="M171 267L172.611 290.022C172.677 290.956 171.936 291.75 171 291.75C170.064 291.75 169.323 290.956 169.389 290.022L171 267Z" fill="#D9D9D9"/>
<path d="M178 302L179.611 325.022C179.677 325.956 178.936 326.75 178 326.75C177.064 326.75 176.323 325.956 176.389 325.022L178 302Z" fill="#D9D9D9"/>
<path d="M143 341L144.611 364.022C144.677 364.956 143.936 365.75 143 365.75C142.064 365.75 141.323 364.956 141.389 364.022L143 341Z" fill="#D9D9D9"/>
<path d="M157 308L158.611 331.022C158.677 331.956 157.936 332.75 157 332.75C156.064 332.75 155.323 331.956 155.389 331.022L157 308Z" fill="#D9D9D9"/>
<path d="M181 336L182.611 359.022C182.677 359.956 181.936 360.75 181 360.75C180.064 360.75 179.323 359.956 179.389 359.022L181 336Z" fill="#D9D9D9"/>
<path d="M194 319L195.611 342.022C195.677 342.956 194.936 343.75 194 343.75C193.064 343.75 192.323 342.956 192.389 342.022L194 319Z" fill="#D9D9D9"/>
<path d="M167 332L168.611 355.022C168.677 355.956 167.936 356.75 167 356.75C166.064 356.75 165.323 355.956 165.389 355.022L167 332Z" fill="#D9D9D9"/>
<path d="M155 348L156.611 371.022C156.677 371.956 155.936 372.75 155 372.75C154.064 372.75 153.323 371.956 153.389 371.022L155 348Z" fill="#D9D9D9"/>
<rect x="11" y="161" width="246" height="44" rx="22" fill="white" fill-opacity="0.57"/>
<rect x="-24" y="-10" width="293" height="45" rx="22.5" fill="white" fill-opacity="0.57"/>
<rect x="185" y="48" width="246" height="44" rx="22" fill="white" fill-opacity="0.57"/>
<rect y="186" width="77" height="39" rx="19.5" fill="white" fill-opacity="0.57"/>
<rect x="326" y="75" width="234" height="64" rx="32" fill="white" fill-opacity="0.57"/>
<path d="M113 248L114.611 271.022C114.677 271.956 113.936 272.75 113 272.75C112.064 272.75 111.323 271.956 111.389 271.022L113 248Z" fill="#D9D9D9"/>
<path d="M148 209L149.611 232.022C149.677 232.956 148.936 233.75 148 233.75C147.064 233.75 146.323 232.956 146.389 232.022L148 209Z" fill="#D9D9D9"/>
<path d="M113 248L114.611 271.022C114.677 271.956 113.936 272.75 113 272.75C112.064 272.75 111.323 271.956 111.389 271.022L113 248Z" fill="#D9D9D9"/>
<path d="M127 215L128.611 238.022C128.677 238.956 127.936 239.75 127 239.75C126.064 239.75 125.323 238.956 125.389 238.022L127 215Z" fill="#D9D9D9"/>
<path d="M151 243L152.611 266.022C152.677 266.956 151.936 267.75 151 267.75C150.064 267.75 149.323 266.956 149.389 266.022L151 243Z" fill="#D9D9D9"/>
<path d="M164 226L165.611 249.022C165.677 249.956 164.936 250.75 164 250.75C163.064 250.75 162.323 249.956 162.389 249.022L164 226Z" fill="#D9D9D9"/>
<path d="M137 239L138.611 262.022C138.677 262.956 137.936 263.75 137 263.75C136.064 263.75 135.323 262.956 135.389 262.022L137 239Z" fill="#D9D9D9"/>
<path d="M125 255L126.611 278.022C126.677 278.956 125.936 279.75 125 279.75C124.064 279.75 123.323 278.956 123.389 278.022L125 255Z" fill="#D9D9D9"/>
</g>
<rect x="0.5" y="0.5" width="505" height="1015" stroke="black"/>
<defs>
<clipPath id="clip0_58_920">
<rect width="506" height="1016" fill="white"/>
</clipPath>
</defs>
</svg>
