<svg width="506" height="1016" viewBox="0 0 506 1016" fill="none" xmlns="http://www.w3.org/2000/svg">
<g clip-path="url(#clip0_58_738)">
<rect width="506" height="1016" fill="#71B2BC"/>
<path d="M22.7234 204.296L214.472 376.771L-21.1953 458.434L22.7234 204.296Z" fill="#328E8A"/>
<path d="M128.5 116L239.784 410H17.2157L128.5 116Z" fill="#328E8A"/>
<path d="M321.254 317.232L368.333 476.001L181.158 405.534L321.254 317.232Z" fill="#1E7874"/>
<path d="M431 183L555.708 408.75H306.292L431 183Z" fill="#1E7874"/>
<rect y="390" width="506" height="765" fill="#1E7874"/>
<path d="M157 61C157 61 168.5 63.5 169.5 66.5C170.5 69.5 181.5 61 181.5 61" stroke="black" stroke-width="3"/>
<path d="M152 77C152 77 162.667 88.9475 162.667 85.3113C162.667 81.6751 172 77 172 77" stroke="black" stroke-width="3"/>
<rect x="11" y="161" width="246" height="44" rx="22" fill="white" fill-opacity="0.57"/>
<rect x="-24" y="-10" width="293" height="45" rx="22.5" fill="white" fill-opacity="0.57"/>
<rect x="185" y="48" width="246" height="44" rx="22" fill="white" fill-opacity="0.57"/>
<rect y="186" width="77" height="39" rx="19.5" fill="white" fill-opacity="0.57"/>
<rect x="326" y="75" width="234" height="64" rx="32" fill="white" fill-opacity="0.57"/>
<circle cx="194.5" cy="232.5" r="3.5" fill="white"/>
<circle cx="194.5" cy="232.5" r="3.5" fill="white"/>
<circle cx="137.5" cy="239.5" r="3.5" fill="white"/>
<circle cx="220.5" cy="239.5" r="3.5" fill="white"/>
<circle cx="165.5" cy="247.5" r="3.5" fill="white"/>
<circle cx="191.5" cy="266.5" r="3.5" fill="white"/>
<circle cx="125.5" cy="266.5" r="3.5" fill="white"/>
<circle cx="341.5" cy="212.5" r="3.5" fill="white"/>
<circle cx="341.5" cy="212.5" r="3.5" fill="white"/>
<circle cx="284.5" cy="219.5" r="3.5" fill="white"/>
<circle cx="367.5" cy="219.5" r="3.5" fill="white"/>
<circle cx="312.5" cy="227.5" r="3.5" fill="white"/>
<circle cx="338.5" cy="246.5" r="3.5" fill="white"/>
<circle cx="272.5" cy="246.5" r="3.5" fill="white"/>
<circle cx="329.5" cy="401.5" r="3.5" fill="white"/>
<circle cx="329.5" cy="401.5" r="3.5" fill="white"/>
<circle cx="272.5" cy="408.5" r="3.5" fill="white"/>
<circle cx="355.5" cy="408.5" r="3.5" fill="white"/>
<circle cx="300.5" cy="416.5" r="3.5" fill="white"/>
<circle cx="326.5" cy="435.5" r="3.5" fill="white"/>
<circle cx="260.5" cy="435.5" r="3.5" fill="white"/>
<circle cx="476.5" cy="381.5" r="3.5" fill="white"/>
<circle cx="476.5" cy="381.5" r="3.5" fill="white"/>
<circle cx="419.5" cy="388.5" r="3.5" fill="white"/>
<circle cx="502.5" cy="388.5" r="3.5" fill="white"/>
<circle cx="447.5" cy="396.5" r="3.5" fill="white"/>
<circle cx="473.5" cy="415.5" r="3.5" fill="white"/>
<circle cx="407.5" cy="415.5" r="3.5" fill="white"/>
<circle cx="88.5" cy="405.5" r="3.5" fill="white"/>
<circle cx="88.5" cy="405.5" r="3.5" fill="white"/>
<circle cx="31.5" cy="412.5" r="3.5" fill="white"/>
<circle cx="114.5" cy="412.5" r="3.5" fill="white"/>
<circle cx="59.5" cy="420.5" r="3.5" fill="white"/>
<circle cx="85.5" cy="439.5" r="3.5" fill="white"/>
<circle cx="19.5" cy="439.5" r="3.5" fill="white"/>
<circle cx="235.5" cy="385.5" r="3.5" fill="white"/>
<circle cx="235.5" cy="385.5" r="3.5" fill="white"/>
<circle cx="178.5" cy="392.5" r="3.5" fill="white"/>
<circle cx="261.5" cy="392.5" r="3.5" fill="white"/>
<circle cx="206.5" cy="400.5" r="3.5" fill="white"/>
<circle cx="232.5" cy="419.5" r="3.5" fill="white"/>
<circle cx="166.5" cy="419.5" r="3.5" fill="white"/>
<circle cx="19.5" cy="94.5" r="3.5" fill="white"/>
<circle cx="19.5" cy="94.5" r="3.5" fill="white"/>
<circle cx="45.5" cy="101.5" r="3.5" fill="white"/>
<circle cx="16.5" cy="128.5" r="3.5" fill="white"/>
<circle cx="166.5" cy="74.5" r="3.5" fill="white"/>
<circle cx="166.5" cy="74.5" r="3.5" fill="white"/>
<circle cx="109.5" cy="81.5" r="3.5" fill="white"/>
<circle cx="192.5" cy="81.5" r="3.5" fill="white"/>
<circle cx="137.5" cy="89.5" r="3.5" fill="white"/>
<circle cx="163.5" cy="108.5" r="3.5" fill="white"/>
<circle cx="97.5" cy="108.5" r="3.5" fill="white"/>
<circle cx="359.5" cy="280.5" r="3.5" fill="white"/>
<circle cx="359.5" cy="280.5" r="3.5" fill="white"/>
<circle cx="302.5" cy="287.5" r="3.5" fill="white"/>
<circle cx="385.5" cy="287.5" r="3.5" fill="white"/>
<circle cx="330.5" cy="295.5" r="3.5" fill="white"/>
<circle cx="356.5" cy="314.5" r="3.5" fill="white"/>
<circle cx="290.5" cy="314.5" r="3.5" fill="white"/>
<circle cx="506.5" cy="260.5" r="3.5" fill="white"/>
<circle cx="506.5" cy="260.5" r="3.5" fill="white"/>
<circle cx="449.5" cy="267.5" r="3.5" fill="white"/>
<circle cx="477.5" cy="275.5" r="3.5" fill="white"/>
<circle cx="503.5" cy="294.5" r="3.5" fill="white"/>
<circle cx="437.5" cy="294.5" r="3.5" fill="white"/>
<circle cx="312.5" cy="346.5" r="3.5" fill="white"/>
<circle cx="312.5" cy="346.5" r="3.5" fill="white"/>
<circle cx="255.5" cy="353.5" r="3.5" fill="white"/>
<circle cx="338.5" cy="353.5" r="3.5" fill="white"/>
<circle cx="283.5" cy="361.5" r="3.5" fill="white"/>
<circle cx="309.5" cy="380.5" r="3.5" fill="white"/>
<circle cx="243.5" cy="380.5" r="3.5" fill="white"/>
<circle cx="459.5" cy="326.5" r="3.5" fill="white"/>
<circle cx="459.5" cy="326.5" r="3.5" fill="white"/>
<circle cx="402.5" cy="333.5" r="3.5" fill="white"/>
<circle cx="485.5" cy="333.5" r="3.5" fill="white"/>
<circle cx="430.5" cy="341.5" r="3.5" fill="white"/>
<circle cx="456.5" cy="360.5" r="3.5" fill="white"/>
<circle cx="390.5" cy="360.5" r="3.5" fill="white"/>
<circle cx="92.5" cy="275.5" r="3.5" fill="white"/>
<circle cx="92.5" cy="275.5" r="3.5" fill="white"/>
<circle cx="35.5" cy="282.5" r="3.5" fill="white"/>
<circle cx="118.5" cy="282.5" r="3.5" fill="white"/>
<circle cx="63.5" cy="290.5" r="3.5" fill="white"/>
<circle cx="89.5" cy="309.5" r="3.5" fill="white"/>
<circle cx="23.5" cy="309.5" r="3.5" fill="white"/>
<circle cx="239.5" cy="255.5" r="3.5" fill="white"/>
<circle cx="239.5" cy="255.5" r="3.5" fill="white"/>
<circle cx="182.5" cy="262.5" r="3.5" fill="white"/>
<circle cx="265.5" cy="262.5" r="3.5" fill="white"/>
<circle cx="210.5" cy="270.5" r="3.5" fill="white"/>
<circle cx="236.5" cy="289.5" r="3.5" fill="white"/>
<circle cx="170.5" cy="289.5" r="3.5" fill="white"/>
<circle cx="507.5" cy="205.5" r="3.5" fill="white"/>
<circle cx="452.5" cy="213.5" r="3.5" fill="white"/>
<circle cx="478.5" cy="232.5" r="3.5" fill="white"/>
<circle cx="412.5" cy="232.5" r="3.5" fill="white"/>
<circle cx="482.5" cy="169.5" r="3.5" fill="white"/>
<circle cx="427.5" cy="177.5" r="3.5" fill="white"/>
<circle cx="453.5" cy="196.5" r="3.5" fill="white"/>
<circle cx="387.5" cy="196.5" r="3.5" fill="white"/>
<circle cx="132.5" cy="339.5" r="3.5" fill="white"/>
<circle cx="132.5" cy="339.5" r="3.5" fill="white"/>
<circle cx="75.5" cy="346.5" r="3.5" fill="white"/>
<circle cx="158.5" cy="346.5" r="3.5" fill="white"/>
<circle cx="103.5" cy="354.5" r="3.5" fill="white"/>
<circle cx="129.5" cy="373.5" r="3.5" fill="white"/>
<circle cx="63.5" cy="373.5" r="3.5" fill="white"/>
<circle cx="279.5" cy="319.5" r="3.5" fill="white"/>
<circle cx="279.5" cy="319.5" r="3.5" fill="white"/>
<circle cx="222.5" cy="326.5" r="3.5" fill="white"/>
<circle cx="305.5" cy="326.5" r="3.5" fill="white"/>
<circle cx="250.5" cy="334.5" r="3.5" fill="white"/>
<circle cx="276.5" cy="353.5" r="3.5" fill="white"/>
<circle cx="210.5" cy="353.5" r="3.5" fill="white"/>
</g>
<rect x="0.5" y="0.5" width="505" height="1015" stroke="black"/>
<defs>
<clipPath id="clip0_58_738">
<rect width="506" height="1016" fill="white"/>
</clipPath>
</defs>
</svg>
